HIERARCHY
ROOT ui
{
	 OFFSET 0 0 0
	 CHANNELS 3 XPosition YPosition Z Position
	 EndSite
	 {
	 OFFSET 0 -1 0
	 }
}
ROOT li
{
	 OFFSET 0 0 0
	 CHANNELS 3 XPosition YPosition Z Position
	 EndSite
	 {
	 OFFSET 0 -1 0
	 }
}
ROOT ul
{
	 OFFSET 0 0 0
	 CHANNELS 3 XPosition YPosition Z Position
	 EndSite
	 {
	 OFFSET 0 -1 0
	 }
}
ROOT ll
{
	 OFFSET 0 0 0
	 CHANNELS 3 XPosition YPosition Z Position
	 EndSite
	 {
	 OFFSET 0 -1 0
	 }
}
ROOT tt
{
	 OFFSET 0 0 0
	 CHANNELS 3 XPosition YPosition Z Position
	 EndSite
	 {
	 OFFSET 0 -1 0
	 }
}
ROOT tb
{
	 OFFSET 0 0 0
	 CHANNELS 3 XPosition YPosition Z Position
	 EndSite
	 {
	 OFFSET 0 -1 0
	 }
}
ROOT td
{
	 OFFSET 0 0 0
	 CHANNELS 3 XPosition YPosition Z Position
	 EndSite
	 {
	 OFFSET 0 -1 0
	 }
}
ROOT v
{
	 OFFSET 0 0 0
	 CHANNELS 3 XPosition YPosition Z Position
	 EndSite
	 {
	 OFFSET 0 -1 0
	 }
}
ROOT bn
{
	 OFFSET 0 0 0
	 CHANNELS 3 XPosition YPosition Z Position
	 EndSite
	 {
	 OFFSET 0 -1 0
	 }
}
MOTION
Frames: 32
Frame Time: 0.002
0.009875633239746094	8.486639857292175E-4	0		0.4197564697265625	-2.40105224609375	0		-1.1854716796875	-0.05267476272583008	0		-0.8484891967773438	-2.6441220703125	0		1.2529766845703125	-0.836793212890625	0		2.7764462890625	0.04918302536010742	0		4.30469482421875	0.24091566467285155	0		5.7311044921875	0.1486749725341797	0		-0.06149985122680664	5.93855712890625	0		
-0.05944501495361328	0.009604969024658204	0		0.4226766357421875	-2.39969384765625	0		-1.1148941650390625	-0.05095160675048828	0		-0.7757078857421875	-2.652384521484375	0		1.253610595703125	-0.8372628173828125	0		2.80289501953125	0.04642484283447266	0		4.3178515625	0.22566473388671876	0		5.735419921875	0.14082984924316405	0		-0.047710498809814456	5.94859375	0		
0.014999987602233887	0.0024519178867340088	0		0.4215879516601562	-2.402236572265625	0		-1.1943475341796874	-0.05217060089111328	0		-0.8126878051757812	-2.65139599609375	0		1.2463505859375	-0.8355508422851563	0		2.8075498046875	0.05114521408081055	0		4.3063798828125	0.22595425415039064	0		5.73595947265625	0.1411070556640625	0		-0.20998666381835937	5.90618994140625	0		
0.015613550186157227	0.00182253098487854	0		0.4205341491699219	-2.405759033203125	0		-1.1218394775390625	-0.05943650817871094	0		-0.7906055297851563	-2.650580810546875	0		1.24404150390625	-0.8389187622070312	0		2.79509814453125	0.04823196411132812	0		4.31895458984375	0.2257847900390625	0		5.72755224609375	0.14159083557128907	0		-0.21033604431152345	5.9055234375	0		
0.012212461471557617	-0.0017017450332641603	0		0.368689453125	-2.400247314453125	0		-1.187158935546875	-0.05891446685791016	0		-0.81259521484375	-2.65485791015625	0		1.25071435546875	-0.84544287109375	0		2.782849853515625	0.05333267593383789	0		4.30757861328125	0.22611224365234375	0		5.7340078125	0.13278993225097657	0		-0.1944346466064453	5.9145634765625	0		
0.02409920883178711	0.007504349231719971	0		0.42674740600585936	-2.401888916015625	0		-1.1064339599609374	-0.05925360870361328	0		-0.7714742431640625	-2.6553505859375	0		1.2597342529296875	-0.8359830322265625	0		2.831346923828125	0.04324953842163086	0		4.31748876953125	0.23903221130371094	0		5.74297216796875	0.14795338439941405	0		-0.04609088134765625	5.9420361328125	0		
0.02480921745300293	0.00696380615234375	0		0.37802761840820315	-2.3913935546875	0		-1.1776024169921875	-0.05356009292602539	0		-0.7693215942382813	-2.654031494140625	0		1.2605721435546875	-0.8363362426757812	0		2.783470947265625	0.06508779907226563	0		4.30820458984375	0.24133761596679687	0		5.72470361328125	0.15065072631835938	0		-0.04824126052856445	5.9435234375	0		
0.02146173095703125	0.00353708291053772	0		0.42684249877929686	-2.404775634765625	0		-1.110896240234375	-0.055518417358398436	0		-0.7950087280273438	-2.643129638671875	0		1.2503865966796874	-0.837448974609375	0		2.797840087890625	0.047713417053222656	0		4.32158740234375	0.22620262145996095	0		5.72123828125	0.14304876708984374	0		-0.195982177734375	5.9138642578125	0		
-0.06195197677612305	-0.0013129520416259766	0		0.39986099243164064	-2.40464990234375	0		-1.1142589111328125	-0.059063072204589846	0		-0.7851572265625	-2.65388037109375	0		1.2481298828125	-0.8406921997070312	0		2.781523681640625	0.0479493408203125	0		4.31024560546875	0.22654920959472657	0		5.7219052734375	0.14335440063476562	0		-0.19609860229492188	5.9133662109375	0		
0.01565316867828369	-0.004227120876312256	0		0.4267396850585938	-2.408530029296875	0		-1.11361328125	-0.059637027740478514	0		-0.8092952270507813	-2.65993359375	0		1.2488739013671875	-0.8409688110351563	0		2.7950576171875	0.042617931365966796	0		4.31498828125	0.23358013916015624	0		5.7325048828125	0.14244969177246095	0		-0.19522392272949218	5.911888671875	0		
-0.05361229705810547	0.004708538055419922	0		0.3787859497070313	-2.397946533203125	0		-1.179044189453125	-0.059906131744384764	0		-0.77044482421875	-2.662144775390625	0		1.2605572509765626	-0.8404295654296875	0		2.79894482421875	0.05948486328125	0		4.31553076171875	0.2336826171875	0		5.7330576171875	0.14271577453613282	0		-0.18211117553710937	5.92322119140625	0		
0.02383962631225586	0.001890463948249817	0		0.4324193115234375	-2.4042646484375	0		-1.1084896240234374	-0.05771115493774414	0		-0.8035789794921875	-2.656940673828125	0		1.2583013916015624	-0.8315985717773438	0		2.804290283203125	0.052329296112060546	0		4.3331015625	0.2394573974609375	0		5.73767822265625	0.1508851318359375	0		-0.06308148574829102	5.93059375	0		
-0.05273817443847656	0.004023373126983643	0		0.4050438842773437	-2.404014404296875	0		-1.1021893310546875	-0.06324671173095703	0		-0.7710725708007813	-2.66493603515625	0		1.2505841064453125	-0.841643798828125	0		2.824765625	0.05690237808227539	0		4.32350830078125	0.24174139404296874	0		5.72875439453125	0.13528768920898437	0		-0.06325806427001954	5.93027001953125	0		
0.01738716697692871	-0.0055694270133972166	0		0.4294410400390625	-2.409706787109375	0		-1.11185693359375	-0.06143369674682617	0		-0.7834217529296875	-2.6580390625	0		1.2509444580078124	-0.8418148803710938	0		2.80009033203125	0.059334781646728514	0		4.32862451171875	0.23374298095703125	0		5.73349755859375	0.16042333984375	0		-0.2120547637939453	5.9007626953125	0		
-0.05226846313476562	0.0034952709674835204	0		0.403869873046875	-2.406429931640625	0		-1.1076143798828124	-0.05883517456054688	0		-0.7742222290039062	-2.668506103515625	0		1.25119189453125	-0.8419590454101562	0		2.79617578125	0.05438551330566406	0		4.316791015625	0.23405989074707031	0		5.7391630859375	0.1335176086425781	0		-0.196162109375	5.90920556640625	0		
0.024778013229370118	8.582900166511536E-4	0		0.4071870422363281	-2.40266162109375	0		-1.177593994140625	-0.061812660217285154	0		-0.8407821655273438	-2.658518798828125	0		1.2654000244140624	-0.8383370971679688	0		2.81417333984375	0.05004028701782227	0		4.30896630859375	0.2403001251220703	0		5.743380859375	0.1416319122314453	0		-0.04791910171508789	5.93823388671875	0		
-0.045082298278808594	0.009988753318786622	0		0.43836227416992185	-2.400377685546875	0		-1.09756884765625	-0.06053201675415039	0		-0.767728271484375	-2.6640869140625	0		1.265430419921875	-0.838426513671875	0		2.81553857421875	0.07102249908447265	0		4.33392724609375	0.23993196105957032	0		5.73853759765625	0.15190443420410157	0		-0.19684768676757813	5.90981103515625	0		
0.02464618492126465	5.643510222434997E-4	0		0.4322507019042969	-2.407373046875	0		-1.10765673828125	-0.05953678131103515	0		-0.7737888793945312	-2.66914697265625	0		1.25434716796875	-0.8392864990234375	0		2.77911572265625	0.05470952224731445	0		4.31669482421875	0.23434719848632812	0		5.7390859375	0.134064208984375	0		-0.0800724105834961	5.91950732421875	0		
-0.052513690948486326	0.0028853890895843507	0		0.43011697387695313	-2.410413818359375	0		-1.10784521484375	-0.059686786651611326	0		-0.7857428588867188	-2.663061279296875	0		1.2511402587890625	-0.8422703247070312	0		2.8007890625	0.0473371696472168	0		4.32363916015625	0.24232046508789062	0		5.7289267578125	0.13641812133789064	0		-0.2139231262207031	5.89985888671875	0		
0.017070030212402342	-0.0064711389541625974	0		0.4040179138183594	-2.406988037109375	0		-1.178161865234375	-0.06251424789428711	0		-0.8109971923828125	-2.668702392578125	0		1.25091748046875	-0.842288330078125	0		2.791733642578125	0.05854618072509766	0		4.321078125	0.22646775817871093	0		5.73862548828125	0.13440007019042968	0		-0.19824098205566407	5.90948486328125	0		
-0.05307661819458008	0.002768186092376709	0		0.43179519653320314	-2.40753076171875	0		-1.09842333984375	-0.06106878662109375	0		-0.7742118530273437	-2.669454345703125	0		1.255770263671875	-0.8353796997070313	0		2.806460205078125	0.060328197479248044	0		4.32102099609375	0.2405784149169922	0		5.7424609375	0.14248983764648437	0		-0.19876097106933593	5.90943408203125	0		
0.027614938735961915	0.00326111102104187	0		0.40867608642578124	-2.400118408203125	0		-1.098752685546875	-0.06112736129760742	0		-0.7724363403320312	-2.668538818359375	0		1.2554666748046874	-0.8353598022460937	0		2.803980712890625	0.05243772888183594	0		4.3326796875	0.24048077392578124	0		5.7331630859375	0.14482371520996093	0		-0.08208922576904297	5.91926123046875	0		
0.020155466079711915	-0.0036124138832092285	0		0.4312890625	-2.407528076171875	0		-1.10315576171875	-0.065092529296875	0		-0.7757372436523438	-2.671511962890625	0		1.2530882568359376	-0.83928564453125	0		2.83175146484375	0.0580118522644043	0		4.33233935546875	0.24061691284179687	0		5.73213671875	0.16202044677734376	0		-0.08359419250488281	5.9202734375	0		
0.022917877197265624	3.4414198994636534E-4	0		0.40306240844726565	-2.40699169921875	0		-1.10937158203125	-0.06000873947143555	0		-0.7888482666015625	-2.665289794921875	0		1.2497513427734375	-0.8421781005859375	0		2.789482666015625	0.06088180923461914	0		4.332021484375	0.24077012634277345	0		5.73318212890625	0.12718883514404297	0		-0.08409830474853516	5.92028173828125	0		
0.015522947311401367	-0.006503798007965088	0		0.42881756591796877	-2.41042822265625	0		-1.103730224609375	-0.06513265228271484	0		-0.7781727905273438	-2.673493408203125	0		1.24951171875	-0.8421124877929688	0		2.79410205078125	0.05491027450561523	0		4.31974658203125	0.24116017150878907	0		5.74119921875	0.1432602081298828	0		-0.20080609130859375	5.908416015625	0		
0.02648997116088867	0.003326262950897217	0		0.3798826904296875	-2.39949267578125	0		-1.1758382568359376	-0.05883449172973633	0		-0.7731978149414063	-2.66858251953125	0		1.2633997802734376	-0.8382906494140625	0		2.8229365234375	0.05751631927490235	0		4.324396484375	0.23425997924804687	0		5.74098095703125	0.1435018768310547	0		-0.052678890228271484	5.9377451171875	0		
0.02634083366394043	0.0033641719818115236	0		0.43681887817382814	-2.400474365234375	0		-1.1000155029296874	-0.06122192001342774	0		-0.8071453857421875	-2.66296044921875	0		1.2573935546875	-0.83209619140625	0		2.813040771484375	0.07184344482421876	0		4.31936572265625	0.24155674743652344	0		5.740826171875	0.1437649383544922	0		-0.06824070739746094	5.92805322265625	0		
0.022204998016357422	4.781219959259033E-4	0		0.4047522888183594	-2.40483642578125	0		-1.1100753173828124	-0.060047336578369144	0		-0.7871190185546875	-2.663316162109375	0		1.2491668701171874	-0.8418571166992187	0		2.7936513671875	0.05534798049926758	0		4.33127197265625	0.24156086730957033	0		5.73177587890625	0.14620829772949218	0		-0.08473171997070313	5.91938134765625	0		
0.015061444282531738	-0.006353375911712647	0		0.42874459838867185	-2.4102109375	0		-1.186060546875	-0.057684181213378906	0		-0.8141432495117188	-2.669822021484375	0		1.2491851806640626	-0.8417626342773438	0		2.797719970703125	0.060436763763427735	0		4.31413720703125	0.23609744262695312	0		5.726607421875	0.1385896453857422	0		-0.08500799560546875	5.91941796875	0		
-0.061869720458984374	-0.003929331064224243	0		0.40294586181640624	-2.4066875	0		-1.104141357421875	-0.06517398834228516	0		-0.7780487060546875	-2.6734677734375	0		1.2492598876953125	-0.8416709594726562	0		2.8186259765625	0.05321889877319336	0		4.3192724609375	0.24223159790039062	0		5.73660205078125	0.13669659423828126	0		-0.2507411346435547	5.8924267578125	0		
0.01924081802368164	-0.003354888916015625	0		0.4051693420410156	-2.404674560546875	0		-1.17594970703125	-0.05889521789550781	0		-0.8456771240234375	-2.663248046875	0		1.2583271484375	-0.8447477416992187	0		2.808946533203125	0.06654624176025391	0		4.319349609375	0.2424439697265625	0		5.74082666015625	0.14489492797851564	0		-0.21679698181152343	5.8978369140625	0		
0.022445125579833983	6.176900267601014E-4	0		0.40643017578125	-2.402651123046875	0		-1.0998446044921875	-0.061276123046875	0		-0.7745430908203125	-2.66952587890625	0		1.2546724853515625	-0.8346031494140626	0		2.81884228515625	0.05350303649902344	0		4.3314716796875	0.2424207305908203	0		5.73199169921875	0.14730227661132814	0		-0.21689013671875	5.89785498046875	0		
